<svg width="45" height="46" viewBox="0 0 45 46" fill="none" xmlns="http://www.w3.org/2000/svg">
<path d="M44.9 23.2106C44.9 21.3436 44.7485 19.9813 44.4207 18.5685H23.1022V26.9948H35.6157C35.3635 29.0889 34.0011 32.2425 30.9736 34.3617L30.9312 34.6438L37.6717 39.8655L38.1387 39.9121C42.4275 35.9512 44.9 30.1233 44.9 23.2106Z" fill="#4285F4"/>
<path d="M23.1022 45.412C29.2328 45.412 34.3794 43.3936 38.1386 39.9122L30.9736 34.3617C29.0562 35.6988 26.4828 36.6323 23.1022 36.6323C17.0978 36.6323 12.0016 32.6714 10.1849 27.1968L9.91864 27.2194L2.90977 32.6436L2.81812 32.8984C6.55196 40.3157 14.2216 45.412 23.1022 45.412Z" fill="#34A853"/>
<path d="M10.1849 27.1969C9.70556 25.7841 9.42815 24.2702 9.42815 22.7061C9.42815 21.1418 9.70556 19.6281 10.1597 18.2153L10.147 17.9144L3.05029 12.4031L2.8181 12.5135C1.2792 15.5915 0.396179 19.0479 0.396179 22.7061C0.396179 26.3643 1.2792 29.8205 2.8181 32.8985L10.1849 27.1969Z" fill="#FBBC05"/>
<path d="M23.1022 8.77961C27.3658 8.77961 30.2419 10.6213 31.8818 12.1604L38.29 5.90357C34.3544 2.24538 29.2328 0 23.1022 0C14.2216 0 6.55196 5.0962 2.81812 12.5134L10.1597 18.2153C12.0016 12.7406 17.0978 8.77961 23.1022 8.77961Z" fill="#EB4335"/>
</svg>
