<svg width="176" height="37" viewBox="0 0 176 37" fill="none" xmlns="http://www.w3.org/2000/svg">
<rect width="176" height="37" rx="18.5" fill="#252525"/>
<path d="M48 14.072H48.888V22.472H48V14.072Z" fill="white"/>
<path d="M60.6811 14.072V22.472H59.9491L54.5491 15.656V22.472H53.6611V14.072H54.3931L59.8051 20.888V14.072H60.6811Z" fill="white"/>
<path d="M73.7874 14.072C74.8594 14.072 75.6994 14.328 76.3074 14.84C76.9154 15.352 77.2194 16.056 77.2194 16.952C77.2194 17.848 76.9154 18.552 76.3074 19.064C75.6994 19.568 74.8594 19.82 73.7874 19.82H71.5314V22.472H70.6434V14.072H73.7874ZM73.7634 19.04C74.5954 19.04 75.2314 18.86 75.6714 18.5C76.1114 18.132 76.3314 17.616 76.3314 16.952C76.3314 16.272 76.1114 15.752 75.6714 15.392C75.2314 15.024 74.5954 14.84 73.7634 14.84H71.5314V19.04H73.7634Z" fill="white"/>
<path d="M86.9155 22.472L84.9955 19.772C84.7795 19.796 84.5555 19.808 84.3235 19.808H82.0675V22.472H81.1795V14.072H84.3235C85.3955 14.072 86.2355 14.328 86.8435 14.84C87.4515 15.352 87.7555 16.056 87.7555 16.952C87.7555 17.608 87.5875 18.164 87.2515 18.62C86.9235 19.068 86.4515 19.392 85.8355 19.592L87.8875 22.472H86.9155ZM84.2995 19.052C85.1315 19.052 85.7675 18.868 86.2075 18.5C86.6475 18.132 86.8675 17.616 86.8675 16.952C86.8675 16.272 86.6475 15.752 86.2075 15.392C85.7675 15.024 85.1315 14.84 84.2995 14.84H82.0675V19.052H84.2995Z" fill="white"/>
<path d="M95.5634 22.544C94.7314 22.544 93.9754 22.36 93.2954 21.992C92.6234 21.616 92.0954 21.104 91.7114 20.456C91.3354 19.808 91.1474 19.08 91.1474 18.272C91.1474 17.464 91.3354 16.736 91.7114 16.088C92.0954 15.44 92.6234 14.932 93.2954 14.564C93.9754 14.188 94.7314 14 95.5634 14C96.3954 14 97.1434 14.184 97.8074 14.552C98.4794 14.92 99.0074 15.432 99.3914 16.088C99.7754 16.736 99.9674 17.464 99.9674 18.272C99.9674 19.08 99.7754 19.812 99.3914 20.468C99.0074 21.116 98.4794 21.624 97.8074 21.992C97.1434 22.36 96.3954 22.544 95.5634 22.544ZM95.5634 21.752C96.2274 21.752 96.8274 21.604 97.3634 21.308C97.8994 21.004 98.3194 20.588 98.6234 20.06C98.9274 19.524 99.0794 18.928 99.0794 18.272C99.0794 17.616 98.9274 17.024 98.6234 16.496C98.3194 15.96 97.8994 15.544 97.3634 15.248C96.8274 14.944 96.2274 14.792 95.5634 14.792C94.8994 14.792 94.2954 14.944 93.7514 15.248C93.2154 15.544 92.7914 15.96 92.4794 16.496C92.1754 17.024 92.0234 17.616 92.0234 18.272C92.0234 18.928 92.1754 19.524 92.4794 20.06C92.7914 20.588 93.2154 21.004 93.7514 21.308C94.2954 21.604 94.8994 21.752 95.5634 21.752Z" fill="white"/>
<path d="M109.914 18.272H110.766V21.476C110.374 21.82 109.91 22.084 109.374 22.268C108.838 22.452 108.274 22.544 107.682 22.544C106.842 22.544 106.086 22.36 105.414 21.992C104.742 21.624 104.214 21.116 103.83 20.468C103.446 19.812 103.254 19.08 103.254 18.272C103.254 17.464 103.446 16.736 103.83 16.088C104.214 15.432 104.742 14.92 105.414 14.552C106.086 14.184 106.846 14 107.694 14C108.334 14 108.922 14.104 109.458 14.312C109.994 14.512 110.446 14.812 110.814 15.212L110.262 15.776C109.598 15.12 108.754 14.792 107.73 14.792C107.05 14.792 106.434 14.944 105.882 15.248C105.338 15.544 104.91 15.96 104.598 16.496C104.286 17.024 104.13 17.616 104.13 18.272C104.13 18.928 104.286 19.52 104.598 20.048C104.91 20.576 105.338 20.992 105.882 21.296C106.426 21.6 107.038 21.752 107.718 21.752C108.582 21.752 109.314 21.536 109.914 21.104V18.272Z" fill="white"/>
<path d="M121.055 22.472L119.135 19.772C118.919 19.796 118.695 19.808 118.463 19.808H116.207V22.472H115.319V14.072H118.463C119.535 14.072 120.375 14.328 120.983 14.84C121.591 15.352 121.895 16.056 121.895 16.952C121.895 17.608 121.727 18.164 121.391 18.62C121.063 19.068 120.591 19.392 119.975 19.592L122.027 22.472H121.055ZM118.439 19.052C119.271 19.052 119.907 18.868 120.347 18.5C120.787 18.132 121.007 17.616 121.007 16.952C121.007 16.272 120.787 15.752 120.347 15.392C119.907 15.024 119.271 14.84 118.439 14.84H116.207V19.052H118.439Z" fill="white"/>
<path d="M131.971 21.704V22.472H126.031V14.072H131.791V14.84H126.919V17.828H131.263V18.584H126.919V21.704H131.971Z" fill="white"/>
<path d="M138.414 22.544C137.79 22.544 137.19 22.444 136.614 22.244C136.046 22.044 135.606 21.78 135.294 21.452L135.642 20.768C135.946 21.072 136.35 21.32 136.854 21.512C137.358 21.696 137.878 21.788 138.414 21.788C139.166 21.788 139.73 21.652 140.106 21.38C140.482 21.1 140.67 20.74 140.67 20.3C140.67 19.964 140.566 19.696 140.358 19.496C140.158 19.296 139.91 19.144 139.614 19.04C139.318 18.928 138.906 18.808 138.378 18.68C137.746 18.52 137.242 18.368 136.866 18.224C136.49 18.072 136.166 17.844 135.894 17.54C135.63 17.236 135.498 16.824 135.498 16.304C135.498 15.88 135.61 15.496 135.834 15.152C136.058 14.8 136.402 14.52 136.866 14.312C137.33 14.104 137.906 14 138.594 14C139.074 14 139.542 14.068 139.998 14.204C140.462 14.332 140.862 14.512 141.198 14.744L140.898 15.452C140.546 15.22 140.17 15.048 139.77 14.936C139.37 14.816 138.978 14.756 138.594 14.756C137.858 14.756 137.302 14.9 136.926 15.188C136.558 15.468 136.374 15.832 136.374 16.28C136.374 16.616 136.474 16.888 136.674 17.096C136.882 17.296 137.138 17.452 137.442 17.564C137.754 17.668 138.17 17.784 138.69 17.912C139.306 18.064 139.802 18.216 140.178 18.368C140.562 18.512 140.886 18.736 141.15 19.04C141.414 19.336 141.546 19.74 141.546 20.252C141.546 20.676 141.43 21.064 141.198 21.416C140.974 21.76 140.626 22.036 140.154 22.244C139.682 22.444 139.102 22.544 138.414 22.544Z" fill="white"/>
<path d="M147.837 22.544C147.213 22.544 146.613 22.444 146.037 22.244C145.469 22.044 145.029 21.78 144.717 21.452L145.065 20.768C145.369 21.072 145.773 21.32 146.277 21.512C146.781 21.696 147.301 21.788 147.837 21.788C148.589 21.788 149.153 21.652 149.529 21.38C149.905 21.1 150.093 20.74 150.093 20.3C150.093 19.964 149.989 19.696 149.781 19.496C149.581 19.296 149.333 19.144 149.037 19.04C148.741 18.928 148.329 18.808 147.801 18.68C147.169 18.52 146.665 18.368 146.289 18.224C145.913 18.072 145.589 17.844 145.317 17.54C145.053 17.236 144.921 16.824 144.921 16.304C144.921 15.88 145.033 15.496 145.257 15.152C145.481 14.8 145.825 14.52 146.289 14.312C146.753 14.104 147.329 14 148.017 14C148.497 14 148.965 14.068 149.421 14.204C149.885 14.332 150.285 14.512 150.621 14.744L150.321 15.452C149.969 15.22 149.593 15.048 149.193 14.936C148.793 14.816 148.401 14.756 148.017 14.756C147.281 14.756 146.725 14.9 146.349 15.188C145.981 15.468 145.797 15.832 145.797 16.28C145.797 16.616 145.897 16.888 146.097 17.096C146.305 17.296 146.561 17.452 146.865 17.564C147.177 17.668 147.593 17.784 148.113 17.912C148.729 18.064 149.225 18.216 149.601 18.368C149.985 18.512 150.309 18.736 150.573 19.04C150.837 19.336 150.969 19.74 150.969 20.252C150.969 20.676 150.853 21.064 150.621 21.416C150.397 21.76 150.049 22.036 149.577 22.244C149.105 22.444 148.525 22.544 147.837 22.544Z" fill="white"/>
<circle cx="30" cy="18" r="5" fill="#59CC12"/>
</svg>
