<svg width="312" height="87" viewBox="0 0 312 87" fill="none" xmlns="http://www.w3.org/2000/svg">
<path d="M0 0H312V87H0V0Z" fill="white"/>
<path d="M73 23H28V68L73 23Z" fill="#FFCA28"/>
<path d="M28 23L28 54.0909L59.0909 54.0909L28 23Z" fill="#F57F17"/>
<path fill-rule="evenodd" clip-rule="evenodd" d="M50.4999 45.4999L28 23V54.136H41.8639L50.4999 45.4999Z" fill="#FFA000"/>
<path d="M94.64 35.92V44.17H105.5V46.09H94.64V55H92.42V34H106.82V35.92H94.64Z" fill="black"/>
<path d="M110.954 32.74H113.084V55H110.954V32.74Z" fill="black"/>
<path d="M124.531 39.1C126.591 39.1 128.171 39.62 129.271 40.66C130.371 41.68 130.921 43.2 130.921 45.22V55H128.881V52.54C128.401 53.36 127.691 54 126.751 54.46C125.831 54.92 124.731 55.15 123.451 55.15C121.691 55.15 120.291 54.73 119.251 53.89C118.211 53.05 117.691 51.94 117.691 50.56C117.691 49.22 118.171 48.14 119.131 47.32C120.111 46.5 121.661 46.09 123.781 46.09H128.791V45.13C128.791 43.77 128.411 42.74 127.651 42.04C126.891 41.32 125.781 40.96 124.321 40.96C123.321 40.96 122.361 41.13 121.441 41.47C120.521 41.79 119.731 42.24 119.071 42.82L118.111 41.23C118.911 40.55 119.871 40.03 120.991 39.67C122.111 39.29 123.291 39.1 124.531 39.1ZM123.781 53.47C124.981 53.47 126.011 53.2 126.871 52.66C127.731 52.1 128.371 51.3 128.791 50.26V47.68H123.841C121.141 47.68 119.791 48.62 119.791 50.5C119.791 51.42 120.141 52.15 120.841 52.69C121.541 53.21 122.521 53.47 123.781 53.47Z" fill="black"/>
<path d="M156.386 39.1C158.366 39.1 159.916 39.67 161.036 40.81C162.176 41.95 162.746 43.63 162.746 45.85V55H160.616V46.06C160.616 44.42 160.216 43.17 159.416 42.31C158.636 41.45 157.526 41.02 156.086 41.02C154.446 41.02 153.156 41.53 152.216 42.55C151.276 43.55 150.806 44.94 150.806 46.72V55H148.676V46.06C148.676 44.42 148.276 43.17 147.476 42.31C146.696 41.45 145.576 41.02 144.116 41.02C142.496 41.02 141.206 41.53 140.246 42.55C139.306 43.55 138.836 44.94 138.836 46.72V55H136.706V39.22H138.746V42.1C139.306 41.14 140.086 40.4 141.086 39.88C142.086 39.36 143.236 39.1 144.536 39.1C145.856 39.1 146.996 39.38 147.956 39.94C148.936 40.5 149.666 41.33 150.146 42.43C150.726 41.39 151.556 40.58 152.636 40C153.736 39.4 154.986 39.1 156.386 39.1Z" fill="black"/>
<path d="M182.321 47.77H169.121C169.241 49.41 169.871 50.74 171.011 51.76C172.151 52.76 173.591 53.26 175.331 53.26C176.311 53.26 177.211 53.09 178.031 52.75C178.851 52.39 179.561 51.87 180.161 51.19L181.361 52.57C180.661 53.41 179.781 54.05 178.721 54.49C177.681 54.93 176.531 55.15 175.271 55.15C173.651 55.15 172.211 54.81 170.951 54.13C169.711 53.43 168.741 52.47 168.041 51.25C167.341 50.03 166.991 48.65 166.991 47.11C166.991 45.57 167.321 44.19 167.981 42.97C168.661 41.75 169.581 40.8 170.741 40.12C171.921 39.44 173.241 39.1 174.701 39.1C176.161 39.1 177.471 39.44 178.631 40.12C179.791 40.8 180.701 41.75 181.361 42.97C182.021 44.17 182.351 45.55 182.351 47.11L182.321 47.77ZM174.701 40.93C173.181 40.93 171.901 41.42 170.861 42.4C169.841 43.36 169.261 44.62 169.121 46.18H180.311C180.171 44.62 179.581 43.36 178.541 42.4C177.521 41.42 176.241 40.93 174.701 40.93Z" fill="black"/>
<path d="M208.218 44.17C209.598 44.47 210.658 45.07 211.398 45.97C212.158 46.85 212.538 47.99 212.538 49.39C212.538 51.19 211.868 52.58 210.528 53.56C209.208 54.52 207.248 55 204.648 55H194.988V34H204.048C206.388 34 208.198 34.47 209.478 35.41C210.778 36.35 211.428 37.68 211.428 39.4C211.428 40.56 211.138 41.55 210.558 42.37C209.998 43.17 209.218 43.77 208.218 44.17ZM197.208 35.83V43.45H203.898C205.598 43.45 206.908 43.13 207.828 42.49C208.748 41.83 209.208 40.88 209.208 39.64C209.208 38.4 208.748 37.46 207.828 36.82C206.908 36.16 205.598 35.83 203.898 35.83H197.208ZM204.618 53.17C206.498 53.17 207.918 52.85 208.878 52.21C209.838 51.57 210.318 50.57 210.318 49.21C210.318 46.59 208.418 45.28 204.618 45.28H197.208V53.17H204.618Z" fill="black"/>
<path d="M223.606 55.15C222.086 55.15 220.716 54.81 219.496 54.13C218.276 53.43 217.316 52.47 216.616 51.25C215.916 50.03 215.566 48.65 215.566 47.11C215.566 45.57 215.916 44.19 216.616 42.97C217.316 41.75 218.276 40.8 219.496 40.12C220.716 39.44 222.086 39.1 223.606 39.1C225.126 39.1 226.496 39.44 227.716 40.12C228.936 40.8 229.886 41.75 230.566 42.97C231.266 44.19 231.616 45.57 231.616 47.11C231.616 48.65 231.266 50.03 230.566 51.25C229.886 52.47 228.936 53.43 227.716 54.13C226.496 54.81 225.126 55.15 223.606 55.15ZM223.606 53.26C224.726 53.26 225.726 53.01 226.606 52.51C227.506 51.99 228.206 51.26 228.706 50.32C229.206 49.38 229.456 48.31 229.456 47.11C229.456 45.91 229.206 44.84 228.706 43.9C228.206 42.96 227.506 42.24 226.606 41.74C225.726 41.22 224.726 40.96 223.606 40.96C222.486 40.96 221.476 41.22 220.576 41.74C219.696 42.24 218.996 42.96 218.476 43.9C217.976 44.84 217.726 45.91 217.726 47.11C217.726 48.31 217.976 49.38 218.476 50.32C218.996 51.26 219.696 51.99 220.576 52.51C221.476 53.01 222.486 53.26 223.606 53.26Z" fill="black"/>
<path d="M244.004 39.1C245.984 39.1 247.554 39.68 248.714 40.84C249.894 41.98 250.484 43.65 250.484 45.85V55H248.354V46.06C248.354 44.42 247.944 43.17 247.124 42.31C246.304 41.45 245.134 41.02 243.614 41.02C241.914 41.02 240.564 41.53 239.564 42.55C238.584 43.55 238.094 44.94 238.094 46.72V55H235.964V39.22H238.004V42.13C238.584 41.17 239.384 40.43 240.404 39.91C241.444 39.37 242.644 39.1 244.004 39.1Z" fill="black"/>
<path d="M270.725 32.74V55H268.685V51.88C268.045 52.94 267.195 53.75 266.135 54.31C265.095 54.87 263.915 55.15 262.595 55.15C261.115 55.15 259.775 54.81 258.575 54.13C257.375 53.45 256.435 52.5 255.755 51.28C255.075 50.06 254.735 48.67 254.735 47.11C254.735 45.55 255.075 44.16 255.755 42.94C256.435 41.72 257.375 40.78 258.575 40.12C259.775 39.44 261.115 39.1 262.595 39.1C263.875 39.1 265.025 39.37 266.045 39.91C267.085 40.43 267.935 41.2 268.595 42.22V32.74H270.725ZM262.775 53.26C263.875 53.26 264.865 53.01 265.745 52.51C266.645 51.99 267.345 51.26 267.845 50.32C268.365 49.38 268.625 48.31 268.625 47.11C268.625 45.91 268.365 44.84 267.845 43.9C267.345 42.96 266.645 42.24 265.745 41.74C264.865 41.22 263.875 40.96 262.775 40.96C261.655 40.96 260.645 41.22 259.745 41.74C258.865 42.24 258.165 42.96 257.645 43.9C257.145 44.84 256.895 45.91 256.895 47.11C256.895 48.31 257.145 49.38 257.645 50.32C258.165 51.26 258.865 51.99 259.745 52.51C260.645 53.01 261.655 53.26 262.775 53.26Z" fill="black"/>
</svg>
