<svg width="177" height="73" viewBox="0 0 177 73" fill="none" xmlns="http://www.w3.org/2000/svg">
<path d="M34.4783 26.2632L27.2 33.0348L20.4465 19.4121L23.9414 11.577C24.8503 9.98637 26.2683 10.0045 27.1545 11.577L34.4783 26.2632Z" fill="#FFA000"/>
<path d="M20.4466 19.4121L27.2 33.0348L0 58.3374L20.4466 19.4121Z" fill="#F57F17"/>
<path d="M42.4384 15.9127C43.7382 14.6629 45.0834 15.0901 45.4265 16.8603L52.5072 58.0012L29.0384 72.0897C28.2203 72.5442 26.0389 72.7396 26.0389 72.7396C26.0389 72.7396 24.0528 72.5033 23.2961 72.0579L0 58.3375L42.4384 15.9127Z" fill="#FFCA28"/>
<path d="M20.448 19.4121L0.00366211 58.3374L9.10896 1.44916C9.44527 -0.323273 10.4542 -0.4937 11.354 1.06968L20.448 19.4121Z" fill="#FFA000"/>
<path fill-rule="evenodd" clip-rule="evenodd" d="M152.971 8.40454C150.75 9.22124 148.115 10.8371 145.347 13.2456L144.353 12.1036L145.347 13.2456C144.787 13.7333 144.222 14.2521 143.654 14.8003C145.682 16.9835 147.698 19.4766 149.635 22.2101C153.025 22.5251 156.242 23.0352 159.186 23.7145C159.302 23.238 159.408 22.7684 159.503 22.3063L159.503 22.306C160.296 18.4577 160.404 15.1584 159.988 12.671C159.563 10.1256 158.649 8.7269 157.698 8.17886C156.803 7.66265 155.243 7.56904 152.971 8.40454ZM145.681 21.936C144.315 20.1353 142.924 18.4717 141.536 16.9693C140.147 18.4723 138.756 20.1367 137.39 21.9382C138.764 21.8741 140.157 21.8413 141.561 21.8413H141.562C142.951 21.8413 144.326 21.8734 145.681 21.936ZM141.536 12.6365C142.146 12.0474 142.754 11.4884 143.359 10.9616C146.313 8.39111 149.261 6.54254 151.926 5.56271C154.54 4.60168 157.171 4.37945 159.211 5.55591L158.455 6.8659L159.211 5.55592C161.319 6.77195 162.49 9.27241 162.974 12.1717C163.469 15.1288 163.313 18.8194 162.469 22.9167C162.364 23.4283 162.246 23.9472 162.118 24.4728C162.904 24.6996 163.665 24.9396 164.398 25.1922L163.968 26.4415L164.398 25.1922C168.101 26.4668 171.175 28.097 173.355 29.9162C175.493 31.7005 177 33.8682 177 36.2234C177 38.6576 175.419 40.9204 173.149 42.7887C170.834 44.6943 167.559 46.4031 163.588 47.7189L163.112 46.2818L163.588 47.7189C163.087 47.8849 162.573 48.0441 162.048 48.1966C162.273 49.0934 162.467 49.9699 162.628 50.8223C163.351 54.625 163.443 58.0383 162.931 60.7809C162.427 63.4792 161.279 65.7953 159.269 66.954C157.207 68.1426 154.499 67.9602 151.777 66.9989C149.002 66.0188 145.925 64.1369 142.859 61.4566C142.417 61.0709 141.976 60.6669 141.536 60.2456C141.096 60.6669 140.655 61.0709 140.213 61.4566C137.147 64.1369 134.07 66.0188 131.295 66.9989C128.573 67.9602 125.865 68.1426 123.803 66.954C121.793 65.7953 120.645 63.4792 120.141 60.7809C119.629 58.0383 119.722 54.625 120.444 50.8223C120.6 50.0007 120.785 49.1567 121 48.2937C120.342 48.1051 119.703 47.905 119.083 47.6932L119.083 47.6931C115.229 46.3759 112.062 44.6504 109.826 42.736C107.634 40.8583 106.123 38.603 106.123 36.2234C106.123 33.9028 107.555 31.7518 109.641 29.9673C111.761 28.1536 114.764 26.5285 118.419 25.2543C119.228 24.9722 120.073 24.7054 120.95 24.4548C120.823 23.9354 120.707 23.4225 120.603 22.9167C119.759 18.8194 119.603 15.1288 120.098 12.1717C120.582 9.27241 121.753 6.77195 123.861 5.55592L124.617 6.8659L123.861 5.55591C125.901 4.37945 128.532 4.60168 131.146 5.56271C133.811 6.54254 136.759 8.39111 139.713 10.9616C140.318 11.4884 140.926 12.0474 141.536 12.6365ZM123.883 23.7042C123.768 23.2312 123.663 22.7651 123.569 22.3063L123.569 22.306C122.776 18.4577 122.668 15.1584 123.084 12.671C123.509 10.1256 124.423 8.7269 125.374 8.17886C126.269 7.66265 127.829 7.56904 130.101 8.40454C132.322 9.22124 134.957 10.8371 137.725 13.2456L138.719 12.1036L137.725 13.2456C138.285 13.7333 138.85 14.2521 139.418 14.8003C137.39 16.9842 135.372 19.4782 133.435 22.2127C130.051 22.5264 126.829 23.0321 123.883 23.7042ZM121.759 27.3725C120.945 27.6057 120.162 27.8529 119.415 28.1133C116 29.3042 113.362 30.7684 111.609 32.2679C109.823 33.7967 109.15 35.1829 109.15 36.2234C109.15 37.3077 109.883 38.798 111.796 40.4363C113.666 42.0381 116.466 43.5991 120.062 44.8281C120.626 45.0208 121.21 45.2037 121.811 45.3767C122.696 42.4938 123.862 39.4542 125.276 36.3688C123.842 33.2934 122.65 30.2592 121.759 27.3725ZM127.003 32.8174C126.092 30.6917 125.318 28.6139 124.697 26.6243C126.736 26.1644 128.924 25.7852 131.221 25.4984C130.649 26.3903 130.087 27.3022 129.538 28.2321L129.53 28.2314L129.047 29.0701C128.329 30.3149 127.647 31.5664 127.003 32.8174ZM128.625 36.3579C129.48 34.5735 130.421 32.7726 131.443 30.9788L131.671 30.5827C132.773 28.6723 133.925 26.8425 135.107 25.1105C137.203 24.9522 139.364 24.8691 141.561 24.8691H141.562C143.747 24.8691 145.889 24.9512 147.963 25.1077C149.146 26.8406 150.299 28.6712 151.401 30.5827L151.629 30.9788C152.651 32.7726 153.592 34.5735 154.447 36.3579C153.538 38.2247 152.536 40.1107 151.452 41.9901C150.354 43.8944 149.216 45.7314 148.052 47.4764C145.945 47.6271 143.772 47.7038 141.562 47.7038C139.336 47.7038 137.149 47.6344 135.032 47.4943C133.863 45.744 132.722 43.9009 131.62 41.9901C130.536 40.1107 129.534 38.2247 128.625 36.3579ZM127.026 39.912C126.131 42.0412 125.369 44.1228 124.752 46.1144C126.765 46.5524 128.929 46.8985 131.201 47.1544C130.449 45.9648 129.714 44.7452 128.997 43.5027L130.258 42.7757L128.997 43.5027C128.309 42.3099 127.651 41.1109 127.026 39.912ZM133.349 50.4053C130.021 50.1303 126.845 49.6779 123.935 49.0349C123.736 49.8402 123.563 50.6253 123.418 51.3871C122.743 54.941 122.694 57.9576 123.118 60.2252C123.549 62.537 124.414 63.8114 125.315 64.3306L125.316 64.3309C126.255 64.8726 127.912 64.9827 130.287 64.1439C132.609 63.3239 135.36 61.6778 138.221 59.177L138.221 59.1769C138.619 58.8289 139.018 58.4637 139.418 58.0821C137.345 55.8334 135.306 53.2359 133.349 50.4053ZM143.654 58.0821C144.054 58.4637 144.453 58.8289 144.851 59.1769L144.851 59.177C147.712 61.6778 150.463 63.3239 152.785 64.1439C155.16 64.9827 156.817 64.8726 157.756 64.3309L157.757 64.3306C158.658 63.8114 159.523 62.537 159.954 60.2252C160.378 57.9576 160.329 54.941 159.654 51.3871C159.504 50.5988 159.324 49.7855 159.116 48.9508C156.22 49.6074 153.058 50.0844 149.742 50.3785C147.779 53.2195 145.733 55.8263 143.654 58.0821ZM161.231 45.281C161.711 45.1413 162.18 44.9959 162.636 44.8447C166.366 43.6089 169.278 42.0541 171.225 40.4512C173.217 38.811 173.972 37.3204 173.972 36.2234C173.972 35.19 173.274 33.7922 171.415 32.241C169.598 30.7247 166.882 29.2494 163.413 28.0551C162.737 27.8225 162.035 27.6007 161.307 27.3903C160.417 30.2716 159.227 33.2997 157.796 36.3688C159.194 39.4201 160.35 42.4265 161.231 45.281ZM156.046 39.912C156.929 42.0119 157.682 44.0655 158.294 46.0322C156.296 46.4793 154.151 46.8398 151.899 47.1101C152.641 45.9345 153.367 44.7297 154.075 43.5027C154.763 42.3099 155.421 41.1109 156.046 39.912ZM156.069 32.8174C156.978 30.6952 157.752 28.6207 158.372 26.6341C156.334 26.169 154.148 25.7862 151.851 25.4973C152.423 26.3895 152.985 27.3018 153.535 28.2321L153.542 28.2314L154.025 29.0701C154.743 30.3149 155.425 31.5664 156.069 32.8174ZM141.536 55.9127C140.092 54.3358 138.652 52.5658 137.237 50.6442C138.663 50.7028 140.107 50.7317 141.562 50.7317C143.001 50.7317 144.43 50.7001 145.84 50.6372C144.424 52.5615 142.982 54.3339 141.536 55.9127ZM147.891 36.2234C147.891 39.7188 145.057 42.5524 141.562 42.5524C138.066 42.5524 135.233 39.7188 135.233 36.2234C135.233 32.728 138.066 29.8944 141.562 29.8944C145.057 29.8944 147.891 32.728 147.891 36.2234Z" fill="#00D8FF"/>
<path d="M87.6279 35.3431C87.9014 35.3431 88.1322 35.4371 88.3203 35.6252C88.5083 35.7961 88.6024 36.0184 88.6024 36.2919C88.6024 36.5655 88.5083 36.7963 88.3203 36.9843C88.1322 37.1553 87.9014 37.2408 87.6279 37.2408H83.294V41.5747C83.294 41.8482 83.1999 42.079 83.0119 42.2671C82.8409 42.4551 82.6187 42.5492 82.3451 42.5492C82.0716 42.5492 81.8408 42.4551 81.6527 42.2671C81.4818 42.079 81.3963 41.8482 81.3963 41.5747V37.2408H77.0624C76.7888 37.2408 76.558 37.1467 76.37 36.9587C76.1819 36.7706 76.0879 36.5484 76.0879 36.2919C76.0879 36.0184 76.1819 35.7961 76.37 35.6252C76.558 35.4371 76.7888 35.3431 77.0624 35.3431H81.3963V31.0092C81.3963 30.7356 81.4818 30.5048 81.6527 30.3168C81.8408 30.1287 82.0716 30.0347 82.3451 30.0347C82.6187 30.0347 82.8409 30.1287 83.0119 30.3168C83.1999 30.5048 83.294 30.7356 83.294 31.0092V35.3431H87.6279Z" fill="#BEBEBE"/>
</svg>
